<?xml version="1.0" encoding="UTF-8" standalone="no"?>
<!DOCTYPE svg PUBLIC "-//W3C//DTD SVG 1.1//EN" "http://www.w3.org/Graphics/SVG/1.1/DTD/svg11.dtd">
<svg xmlns="http://www.w3.org/2000/svg" version="1.1" viewBox="0.00 0.00 500.00 500.00">
<g stroke-width="2.00" fill="none" stroke-linecap="butt">
<path stroke="#0b1e3a" vector-effect="non-scaling-stroke" d="
  M 224.75 148.96
  L 225.68 149.22
  Q 226.00 149.31 226.02 148.99
  L 226.62 140.00
  A 0.22 0.22 0.0 0 1 227.04 139.94
  C 228.47 143.97 225.46 149.99 228.90 152.11
  C 230.69 153.22 235.25 152.69 237.69 152.69
  Q 238.20 152.70 238.57 152.34
  Q 239.99 150.98 239.85 148.74
  Q 239.17 137.74 240.02 126.75
  Q 240.16 125.01 237.61 122.84
  Q 237.26 122.56 236.82 122.48
  L 229.89 121.30"
/>
<path stroke="#0b1e3a" vector-effect="non-scaling-stroke" d="
  M 224.62 133.64
  Q 225.97 130.93 225.22 127.66
  A 2.15 2.07 46.7 0 1 225.23 126.73
  Q 225.57 125.35 226.95 125.02
  Q 227.39 124.92 227.35 124.46
  Q 227.26 123.41 227.58 122.44"
/>
<path stroke="#0b1e3a" vector-effect="non-scaling-stroke" d="
  M 249.19 151.01
  Q 250.26 151.31 251.06 150.65
  Q 251.48 150.31 251.95 150.57
  Q 253.54 151.44 252.66 152.99
  Q 252.32 153.58 252.94 153.86
  L 255.82 155.15
  A 0.61 0.59 -89.1 0 1 256.13 155.48
  L 260.08 165.60
  Q 260.31 166.17 260.17 166.76
  Q 259.70 168.77 261.05 170.03
  Q 261.42 170.38 261.93 170.33
  Q 264.60 170.07 264.59 168.26
  Q 264.46 150.77 264.11 132.91
  A 1.15 1.15 0.0 0 0 262.94 131.78
  Q 260.98 131.80 260.35 130.07
  Q 260.17 129.58 259.67 129.42
  Q 254.91 128.01 252.57 131.39
  Q 251.39 133.10 251.55 136.36
  Q 251.80 141.43 252.00 146.49
  Q 252.05 147.74 251.20 148.40
  Q 250.65 148.82 250.65 148.13
  Q 250.64 140.87 250.69 133.76
  Q 250.70 132.61 249.14 131.19"
/>
<path stroke="#0b1e3a" vector-effect="non-scaling-stroke" d="
  M 216.68 138.07
  C 214.23 131.67 207.65 132.53 202.26 134.18
  Q 200.64 134.68 199.67 136.23"
/>
<path stroke="#0b1e3a" vector-effect="non-scaling-stroke" d="
  M 284.75 163.02
  Q 285.01 161.12 286.80 160.01
  Q 287.21 159.76 287.34 159.30
  C 288.93 153.60 288.25 146.62 287.99 140.71
  C 287.74 135.11 282.37 135.18 278.45 136.95
  C 275.69 138.19 275.46 142.86 275.47 145.41
  Q 275.48 147.61 275.25 151.08
  C 275.09 153.68 275.85 156.26 275.78 158.80
  Q 275.73 160.54 275.82 162.42
  A 0.96 0.95 -76.7 0 0 276.31 163.22
  Q 278.44 164.40 281.63 164.01"
/>
<path stroke="#0b1e3a" vector-effect="non-scaling-stroke" d="
  M 233.57 177.88
  Q 231.35 176.98 228.88 177.43
  Q 228.23 177.55 228.37 176.90
  L 228.44 176.55
  Q 228.55 176.05 229.06 176.04
  C 233.71 175.97 239.23 177.07 243.45 174.69
  Q 245.95 173.28 248.83 172.86
  A 2.26 2.26 0.0 0 0 250.73 170.21
  Q 249.95 166.03 247.41 162.26
  C 245.89 159.99 240.04 160.91 237.81 161.13
  Q 233.88 161.52 230.92 161.29
  Q 223.79 160.74 216.62 160.95
  C 210.65 161.12 209.25 165.50 204.33 166.67
  A 1.09 1.07 -84.3 0 0 203.58 167.30
  Q 202.59 169.59 202.67 173.00
  Q 203.01 186.43 204.64 196.53
  Q 204.99 198.67 206.38 200.53
  Q 211.73 207.71 216.41 215.50"
/>
<path stroke="#0b1e3a" vector-effect="non-scaling-stroke" d="
  M 275.03 236.88
  Q 274.19 245.74 276.35 254.00
  C 276.99 256.46 276.73 258.80 277.21 260.97
  Q 278.75 267.90 279.21 275.01
  Q 279.24 275.51 279.56 275.89
  C 281.59 278.27 279.67 281.45 281.09 284.33
  A 1.73 1.66 36.1 0 1 281.26 285.29
  Q 280.95 288.03 282.75 289.77"
/>
<path stroke="#4f617b" vector-effect="non-scaling-stroke" d="
  M 250.29 334.73
  L 218.01 334.56"
/>
<path stroke="#4f617b" vector-effect="non-scaling-stroke" d="
  M 245.48 336.07
  L 221.58 335.65"
/>
<path stroke="#0c2c5f" vector-effect="non-scaling-stroke" d="
  M 162.47 165.92
  Q 159.77 167.83 158.25 167.72
  Q 152.94 167.33 147.66 167.74
  Q 144.34 168.00 140.81 167.85
  Q 137.40 167.71 133.94 167.87
  Q 133.37 167.90 133.35 168.47
  Q 133.29 170.12 134.54 171.57"
/>
<path stroke="#4f617b" vector-effect="non-scaling-stroke" d="
  M 132.10 175.13
  L 124.67 179.18"
/>
<path stroke="#4f617b" vector-effect="non-scaling-stroke" d="
  M 120.83 176.94
  Q 121.15 176.50 119.47 175.74"
/>
<path stroke="#4f617b" vector-effect="non-scaling-stroke" d="
  M 170.54 287.57
  Q 167.83 286.52 167.87 286.01"
/>
<path stroke="#4f617b" vector-effect="non-scaling-stroke" d="
  M 125.96 284.02
  Q 125.88 283.74 125.48 284.03"
/>
<path stroke="#4f617b" vector-effect="non-scaling-stroke" d="
  M 370.15 176.01
  Q 366.67 176.09 367.68 177.13"
/>
<path stroke="#4f617b" vector-effect="non-scaling-stroke" d="
  M 364.97 178.78
  Q 363.75 178.15 363.07 179.01"
/>
<path stroke="#4f617b" vector-effect="non-scaling-stroke" d="
  M 359.49 177.02
  Q 358.26 176.30 357.53 176.69"
/>
<path stroke="#0b1e3a" vector-effect="non-scaling-stroke" d="
  M 355.07 171.44
  Q 355.54 170.82 356.37 170.42
  Q 356.85 170.18 356.84 169.65
  Q 356.81 168.33 355.20 167.37"
/>
<path stroke="#495770" vector-effect="non-scaling-stroke" d="
  M 321.43 283.50
  Q 321.16 283.81 320.67 283.43"
/>
<path stroke="#495770" vector-effect="non-scaling-stroke" d="
  M 408.09 284.83
  Q 406.05 286.97 406.22 285.03"
/>
<path stroke="#495770" vector-effect="non-scaling-stroke" d="
  M 365.08 286.45
  Q 365.53 286.77 365.35 287.05
  A 1.21 1.21 0.0 0 1 363.49 287.26
  Q 363.02 286.81 363.53 285.85"
/>
<path stroke="#0c2c5f" vector-effect="non-scaling-stroke" d="
  M 392.20 292.44
  L 392.35 292.01
  Q 392.54 291.49 392.02 291.31
  Q 390.67 290.83 388.75 290.68
  Q 376.76 289.75 366.00 290.94
  C 363.32 291.24 360.50 289.93 357.66 290.03
  Q 348.03 290.38 338.69 289.84
  Q 335.12 289.64 337.93 291.84
  Q 340.36 293.75 344.34 294.80
  Q 347.05 295.52 351.26 295.63
  Q 363.85 295.98 376.46 296.10
  C 379.26 296.12 381.55 294.86 384.42 294.54
  C 386.76 294.28 388.64 293.06 391.03 292.99"
/>
<path stroke="#0c2c5f" vector-effect="non-scaling-stroke" d="
  M 121.60 163.68
  C 118.58 165.96 118.67 169.71 119.90 173.10
  A 0.49 0.49 0.0 0 0 120.85 172.95
  L 121.05 166.51
  Q 121.07 165.96 121.59 165.81
  L 126.91 164.21
  A 0.85 0.85 0.0 0 1 127.71 164.39
  L 131.93 168.07
  A 0.68 0.68 0.0 0 0 132.98 167.23
  C 131.48 164.46 129.80 162.73 126.69 162.92
  C 124.74 163.03 123.20 162.47 121.60 163.68"
/>
<path stroke="#0c2c5f" vector-effect="non-scaling-stroke" d="
  M 323.69 347.82
  A 1.23 1.23 0.0 0 0 322.46 346.59
  L 166.84 346.59
  A 1.23 1.23 0.0 0 0 165.61 347.82
  L 165.61 349.52
  A 1.23 1.23 0.0 0 0 166.84 350.75
  L 322.46 350.75
  A 1.23 1.23 0.0 0 0 323.69 349.52
  L 323.69 347.82"
/>
</g>
<path fill="#123669" d="
  M 249.6469 486.6996
  A 236.69 233.86 90.1 0 1 16.2004 249.6018
  A 236.69 233.86 90.1 0 1 250.4731 13.3204
  A 236.69 233.86 90.1 0 1 483.9196 250.4182
  A 236.69 233.86 90.1 0 1 249.6469 486.6996
  Z
  M 248.4522 483.2843
  A 233.17 230.31 90.4 0 0 480.3844 251.7279
  A 233.17 230.31 90.4 0 0 251.7078 16.9557
  A 233.17 230.31 90.4 0 0 19.7756 248.5121
  A 233.17 230.31 90.4 0 0 248.4522 483.2843
  Z"
/>
<path fill="#123669" d="
  M 222.88 53.63
  C 226.37 52.46 230.15 50.90 232.17 47.51
  Q 239.36 35.45 249.38 25.64
  C 251.80 23.27 258.06 18.91 260.82 21.58
  C 263.41 24.08 260.54 30.01 258.67 32.21
  Q 249.34 43.22 236.23 49.32
  Q 235.80 49.53 235.56 49.95
  C 232.35 55.75 223.42 73.07 225.80 77.51
  A 1.07 1.05 -8.7 0 0 226.55 78.05
  C 230.98 78.85 240.84 65.40 243.70 62.21
  A 0.43 0.42 -38.9 0 1 244.39 62.28
  Q 244.61 62.66 244.56 63.11
  Q 244.52 63.46 244.18 63.82
  C 242.76 65.34 241.30 66.74 240.23 68.62
  C 238.00 72.52 227.59 85.61 223.07 77.79
  C 219.56 71.71 225.55 59.15 229.31 53.96
  A 0.63 0.63 0.0 0 0 228.53 53.02
  L 222.21 56.03
  A 1.23 1.23 0.0 0 0 221.62 56.65
  Q 218.49 64.02 214.92 68.66
  Q 207.22 78.65 203.62 82.11
  Q 199.90 85.68 194.50 87.38
  C 186.60 89.85 188.47 79.93 190.78 76.49
  C 197.48 66.48 205.61 61.52 216.32 56.51
  A 1.43 1.39 89.2 0 0 217.02 55.77
  Q 220.64 47.08 226.38 39.66
  Q 227.82 37.78 225.62 38.64
  C 221.27 40.35 218.73 38.70 219.16 33.97
  A 1.30 1.26 28.6 0 0 218.88 33.07
  C 217.24 31.08 215.57 32.10 213.64 32.41
  Q 205.76 33.67 201.89 40.18
  C 199.37 44.40 200.27 50.25 206.64 48.40
  Q 212.60 46.66 216.27 41.51
  Q 216.58 41.08 217.09 41.20
  L 217.43 41.28
  Q 218.06 41.43 217.74 41.99
  Q 213.90 48.68 206.75 50.33
  C 203.05 51.18 199.80 50.33 198.73 46.51
  C 197.31 41.46 201.61 35.92 205.75 33.49
  C 209.92 31.04 218.35 28.04 221.99 32.50
  Q 223.21 33.99 221.85 35.91
  A 0.59 0.58 -48.6 0 0 221.89 36.63
  C 225.29 40.48 234.08 28.97 235.44 26.58
  A 1.01 1.00 -65.9 0 1 236.63 26.12
  Q 238.01 26.58 237.08 27.60
  Q 227.29 38.42 222.27 53.02
  A 0.48 0.48 0.0 0 0 222.88 53.63
  Z
  M 258.60 22.74
  C 251.77 22.56 240.62 40.21 237.41 45.87
  A 0.32 0.31 -88.3 0 0 237.82 46.31
  C 245.89 42.17 257.67 33.87 259.92 24.46
  A 1.40 1.40 0.0 0 0 258.60 22.74
  Z
  M 214.79 59.31
  C 207.10 62.78 189.92 74.04 190.73 83.96
  A 1.85 1.85 0.0 0 0 193.06 85.60
  C 203.84 82.67 211.36 69.53 215.41 59.92
  A 0.47 0.47 0.0 0 0 214.79 59.31
  Z"
/>
<ellipse fill="#123669" cx="0.00" cy="0.00" transform="translate(260.86,52.30) rotate(116.2)" rx="2.06" ry="1.80"/>
<ellipse fill="#123669" cx="0.00" cy="0.00" transform="translate(278.56,53.88) rotate(-35.3)" rx="2.09" ry="1.87"/>
<path fill="#123669" d="
  M 267.06 63.75
  C 260.89 65.89 256.05 71.57 250.74 74.98
  Q 248.66 76.31 245.68 76.24
  Q 245.16 76.22 244.82 75.83
  C 243.04 73.83 245.93 68.81 247.03 67.12
  Q 247.41 66.54 246.71 66.53
  L 245.70 66.53
  A 0.47 0.47 0.0 0 1 245.37 65.73
  Q 249.00 61.96 252.97 59.95
  Q 254.99 58.93 257.48 59.59
  Q 257.98 59.72 257.66 60.12
  L 246.93 73.26
  A 0.49 0.48 32.5 0 0 247.10 74.01
  Q 247.64 74.26 248.18 73.94
  C 254.87 69.98 260.74 64.52 267.49 61.27
  Q 270.65 59.75 274.38 60.71
  Q 274.95 60.86 274.54 61.28
  L 262.31 73.84
  A 0.54 0.54 0.0 0 0 262.95 74.69
  Q 271.01 70.40 279.40 65.80
  C 282.52 64.09 295.00 60.34 294.52 66.48
  Q 294.32 69.03 292.77 70.60
  A 0.59 0.58 -76.1 0 0 293.35 71.57
  L 297.71 70.20
  A 0.35 0.35 0.0 0 1 298.12 70.69
  C 296.87 73.11 292.73 73.70 290.59 73.28
  Q 290.10 73.18 289.69 73.45
  C 286.15 75.70 282.64 77.82 278.30 77.85
  C 274.73 77.88 272.64 75.48 273.96 72.00
  A 0.52 0.52 0.0 0 0 273.21 71.37
  Q 267.41 74.76 261.11 77.11
  Q 259.08 77.86 257.66 79.38
  Q 248.02 89.71 239.98 95.99
  Q 237.73 97.75 234.15 96.96
  A 1.32 1.27 -10.9 0 1 233.40 96.47
  C 227.95 89.03 248.97 79.78 253.34 78.04
  Q 255.51 77.18 257.04 75.58
  Q 262.14 70.26 267.64 64.69
  Q 269.34 62.96 267.06 63.75
  Z
  M 292.5432 65.7140
  A 9.31 2.80 -32.6 0 0 283.1914 68.3711
  A 9.31 2.80 -32.6 0 0 276.8568 75.7460
  A 9.31 2.80 -32.6 0 0 286.2086 73.0889
  A 9.31 2.80 -32.6 0 0 292.5432 65.7140
  Z
  M 237.48 94.90
  C 242.68 91.49 247.50 86.55 251.56 81.81
  Q 253.34 79.74 250.90 80.96
  C 246.53 83.14 236.48 88.08 234.76 92.45
  Q 233.89 94.66 235.89 95.17
  A 1.99 1.96 35.0 0 0 237.48 94.90
  Z"
/>
<path fill="#123669" d="
  M 321.03 82.66
  C 324.83 80.54 330.29 76.97 334.28 80.22
  A 2.20 1.71 69.5 0 1 333.11 83.95
  Q 332.30 83.59 331.89 83.59
  A 0.65 0.65 0.0 0 1 331.25 82.94
  L 331.27 81.37
  A 0.89 0.89 0.0 0 0 330.02 80.55
  L 319.46 85.11
  A 1.14 1.13 85.6 0 0 318.82 85.86
  C 315.53 98.54 302.17 101.29 291.22 97.64
  C 279.82 93.85 288.77 80.31 299.80 87.42
  A 0.80 0.80 0.0 0 1 299.13 88.86
  C 294.75 87.53 291.38 85.52 288.14 90.18
  Q 287.84 90.60 287.90 91.12
  C 288.49 96.31 296.40 97.45 300.30 96.85
  C 307.52 95.75 313.09 93.46 316.81 86.63
  A 0.66 0.66 0.0 0 0 316.02 85.69
  C 311.99 87.05 302.10 85.71 305.11 78.94
  C 307.21 74.20 315.50 74.86 320.11 75.37
  Q 320.66 75.43 320.98 74.99
  C 323.65 71.29 328.26 68.07 332.54 71.29
  A 1.12 1.09 13.5 0 1 332.97 71.97
  C 334.19 78.43 326.95 77.84 322.29 77.72
  Q 321.65 77.70 321.48 78.32
  L 320.40 82.17
  Q 320.12 83.17 321.03 82.66
  Z
  M 331.3414 72.8076
  A 4.17 1.87 -18.2 0 0 326.7959 72.3336
  A 4.17 1.87 -18.2 0 0 323.4186 75.4124
  A 4.17 1.87 -18.2 0 0 327.9641 75.8864
  A 4.17 1.87 -18.2 0 0 331.3414 72.8076
  Z
  M 310.91 78.81
  A 1.29 1.29 0.0 0 0 310.26 79.23
  L 308.05 81.88
  A 1.29 1.29 0.0 0 0 308.93 83.99
  L 316.43 84.61
  A 1.29 1.29 0.0 0 0 317.77 83.71
  L 319.34 78.58
  A 1.29 1.29 0.0 0 0 317.77 76.96
  L 310.91 78.81
  Z"
/>
<path fill="#123669" d="
  M 158.66 101.76
  C 164.88 99.08 168.33 89.55 170.30 84.36
  Q 170.50 83.82 170.73 84.34
  Q 171.01 84.95 170.90 85.47
  C 169.73 91.29 165.86 101.41 159.52 103.49
  C 156.37 104.53 154.52 101.21 153.72 98.81
  C 152.09 93.90 158.25 82.40 163.75 82.11
  Q 165.84 81.99 166.47 84.25
  C 167.41 87.62 162.46 92.32 159.85 94.11
  Q 157.79 95.53 157.38 96.95
  Q 156.76 99.12 157.68 101.36
  A 0.74 0.74 0.0 0 0 158.66 101.76
  Z
  M 158.5118 92.0945
  A 4.81 1.20 124.7 0 0 162.2366 88.8231
  A 4.81 1.20 124.7 0 0 163.9882 84.1855
  A 4.81 1.20 124.7 0 0 160.2634 87.4569
  A 4.81 1.20 124.7 0 0 158.5118 92.0945
  Z"
/>
<path fill="#123669" d="
  M 76.24 186.62
  Q 77.13 189.44 77.92 192.40
  Q 78.63 195.04 80.06 197.95
  C 81.33 200.55 85.66 209.22 81.65 211.09
  Q 80.22 211.76 79.07 210.94
  Q 73.70 207.11 71.70 200.40
  A 0.87 0.87 0.0 0 0 70.00 200.63
  Q 69.98 201.99 70.64 203.87
  Q 73.95 213.44 78.55 222.47
  Q 79.28 223.93 77.93 226.33
  Q 77.62 226.88 77.25 226.37
  L 68.08 213.87
  A 0.53 0.53 0.0 0 0 67.16 214.36
  L 69.96 222.29
  A 0.51 0.51 0.0 0 1 69.05 222.73
  C 67.96 220.98 62.04 209.43 67.31 209.62
  C 68.33 209.66 69.36 210.50 70.51 210.80
  Q 71.26 211.01 70.96 210.29
  C 69.52 206.94 66.64 200.49 69.48 197.33
  A 0.95 0.95 0.0 0 1 70.35 197.03
  C 76.33 198.07 77.87 203.74 79.95 208.59
  A 0.82 0.81 38.2 0 0 81.50 208.41
  C 82.02 205.31 77.88 197.34 76.57 194.20
  C 75.90 192.57 76.59 191.26 75.93 189.65
  Q 73.78 184.39 73.01 178.01
  Q 72.92 177.26 72.28 177.19
  Q 71.62 177.12 71.72 177.77
  Q 71.78 178.17 71.22 178.22
  A 0.55 0.54 71.5 0 1 70.69 177.95
  Q 69.77 176.40 70.87 174.97
  Q 71.30 174.41 70.97 173.78
  L 66.35 164.93
  A 1.40 1.40 0.0 0 1 66.30 163.73
  L 67.48 161.01
  Q 67.76 160.37 68.07 160.99
  L 72.02 168.77
  A 0.59 0.59 0.0 0 0 73.09 168.74
  L 74.61 165.28
  Q 74.89 164.64 75.35 165.17
  L 75.99 165.92
  Q 76.32 166.29 76.13 166.76
  L 74.44 170.93
  Q 74.22 171.47 74.49 171.99
  L 85.03 192.41
  A 0.77 0.76 -56.6 0 0 86.47 192.11
  Q 86.66 189.51 85.92 186.54
  Q 84.17 179.52 82.55 169.24
  Q 81.94 165.36 83.98 162.70
  Q 84.36 162.19 84.61 162.78
  L 90.80 177.12
  A 0.78 0.78 0.0 0 0 92.30 176.74
  Q 91.24 165.86 88.19 155.38
  A 0.89 0.86 -40.1 0 1 88.26 154.70
  L 89.75 151.96
  Q 90.06 151.39 90.32 151.99
  L 96.55 166.70
  A 0.82 0.82 0.0 0 0 98.13 166.34
  C 97.78 160.27 96.17 153.85 96.35 148.29
  Q 96.49 144.21 97.27 140.38
  A 1.85 1.84 27.9 0 1 100.37 139.43
  L 102.39 141.41
  A 0.63 0.63 0.0 0 0 103.46 140.88
  Q 102.70 134.82 105.35 129.62
  Q 106.40 127.56 108.53 129.20
  C 112.44 132.21 112.22 137.99 112.23 142.55
  A 0.80 0.80 0.0 0 0 113.64 143.06
  C 115.50 140.84 114.64 130.38 114.64 127.14
  Q 114.64 126.65 114.96 126.29
  L 115.18 126.05
  Q 115.55 125.64 115.60 125.09
  C 115.99 121.41 118.20 113.28 122.58 112.41
  Q 123.10 112.30 123.54 112.60
  C 128.52 115.88 122.63 124.13 119.90 126.86
  Q 119.49 127.27 119.63 127.83
  L 120.66 131.80
  A 1.59 1.59 0.0 0 0 123.53 132.28
  Q 128.56 124.64 128.34 115.62
  C 128.28 113.08 128.99 111.36 129.41 108.92
  A 1.52 1.49 36.9 0 0 129.27 108.00
  Q 127.72 105.03 130.56 103.45
  A 0.55 0.54 -40.0 0 1 131.18 103.50
  L 133.07 104.98
  A 0.65 0.65 0.0 0 0 134.04 104.79
  Q 135.58 102.03 135.89 98.88
  Q 135.96 98.15 136.28 97.68
  Q 136.78 96.94 137.19 96.72
  A 1.14 1.14 0.0 0 1 138.88 97.79
  C 138.68 101.40 136.78 103.27 136.04 106.11
  Q 135.14 109.56 134.24 112.97
  A 0.51 0.51 0.0 0 0 135.14 113.40
  Q 137.63 110.06 140.43 112.96
  Q 140.94 113.49 141.09 112.77
  L 143.52 100.73
  A 0.37 0.37 0.0 0 1 144.14 100.53
  Q 144.45 100.80 144.43 101.24
  C 144.26 105.71 143.66 115.13 140.28 118.37
  A 1.13 1.11 27.1 0 1 139.32 118.67
  Q 137.09 118.35 137.08 115.96
  A 0.72 0.72 0.0 0 0 135.80 115.52
  C 133.76 118.15 134.40 121.11 133.46 124.13
  A 1.15 1.15 0.0 0 1 131.22 123.90
  C 131.12 122.94 131.14 121.72 131.44 120.72
  Q 133.35 114.40 134.95 107.56
  A 0.30 0.30 0.0 0 0 134.52 107.23
  L 131.05 108.97
  Q 130.69 109.16 130.58 109.55
  C 128.42 117.26 131.19 125.97 125.11 132.86
  C 121.99 136.39 119.84 134.56 117.13 132.04
  A 0.53 0.53 0.0 0 0 116.24 132.45
  C 116.40 135.52 117.27 143.51 114.41 145.45
  A 2.73 2.72 50.2 0 1 110.98 145.13
  C 107.77 141.95 107.79 136.31 107.35 132.19
  A 0.81 0.81 0.0 0 0 105.74 132.20
  Q 104.61 143.75 105.88 154.59
  C 106.12 156.67 105.26 157.88 103.91 159.23
  Q 103.35 159.78 103.17 159.02
  L 99.49 143.93
  A 0.73 0.72 38.5 0 0 98.06 144.09
  C 98.02 147.84 97.75 151.12 98.54 154.92
  C 99.35 158.80 100.97 166.63 98.74 170.09
  A 1.81 1.81 0.0 0 1 95.97 170.43
  L 94.02 168.57
  A 0.44 0.44 0.0 0 0 93.28 168.96
  C 93.78 171.94 94.94 177.78 93.21 180.38
  A 2.38 2.38 0.0 0 1 89.63 180.81
  Q 87.14 178.51 86.00 175.27
  A 0.59 0.59 0.0 0 0 84.87 175.34
  C 83.73 180.42 91.63 191.45 87.05 195.31
  C 83.60 198.21 78.18 188.58 76.78 186.37
  A 0.30 0.30 0.0 0 0 76.24 186.62
  Z
  M 119.6877 123.5894
  A 4.81 1.28 108.2 0 0 122.4060 119.4198
  A 4.81 1.28 108.2 0 0 122.6923 114.4506
  A 4.81 1.28 108.2 0 0 119.9740 118.6202
  A 4.81 1.28 108.2 0 0 119.6877 123.5894
  Z"
/>
<path fill="#123669" d="
  M 392.52 116.19
  Q 411.37 114.98 430.04 117.71
  C 433.85 118.27 437.29 119.50 440.37 121.39
  A 0.70 0.70 0.0 0 1 440.02 122.68
  Q 419.06 123.17 398.82 126.17
  Q 390.57 127.39 382.71 128.14
  A 0.96 0.95 50.0 0 0 382.55 130.01
  Q 389.96 132.08 397.66 132.40
  Q 398.25 132.42 398.09 132.99
  Q 398.04 133.17 397.88 133.31
  Q 397.75 133.44 397.50 133.47
  Q 387.72 134.66 379.21 130.06
  Q 378.75 129.81 378.24 129.93
  Q 375.05 130.66 373.09 127.76
  Q 372.92 127.52 373.20 127.42
  L 375.77 126.49
  A 0.55 0.54 -30.2 0 0 376.00 125.63
  Q 372.95 122.07 372.77 117.28
  A 1.47 1.47 0.0 0 0 371.37 115.87
  C 363.87 115.54 351.80 112.38 348.18 104.92
  Q 345.79 99.99 350.65 97.75
  Q 352.97 96.68 355.26 98.80
  A 1.73 1.73 0.0 0 1 354.36 101.78
  Q 352.37 102.11 351.36 100.29
  Q 350.86 99.38 350.12 100.12
  Q 348.73 101.52 349.30 103.45
  C 351.46 110.71 365.36 113.57 371.53 114.66
  A 0.86 0.86 0.0 0 0 372.54 113.74
  Q 371.71 104.12 379.18 98.17
  C 383.88 94.43 389.96 96.31 392.71 101.29
  C 395.52 106.39 393.55 110.53 392.07 115.64
  Q 391.90 116.23 392.52 116.19
  Z
  M 390.28 114.93
  C 392.86 109.99 393.70 103.14 388.81 99.41
  C 386.61 97.73 383.42 97.51 381.18 99.01
  Q 373.30 104.29 374.04 114.78
  Q 374.07 115.26 374.55 115.26
  L 389.45 115.42
  Q 390.02 115.43 390.28 114.93
  Z
  M 374.92 116.57
  A 0.90 0.90 0.0 0 0 374.06 117.83
  L 377.43 125.37
  A 0.90 0.90 0.0 0 0 378.79 125.73
  L 388.33 118.70
  A 0.90 0.90 0.0 0 0 387.83 117.08
  L 374.92 116.57
  Z
  M 433.38 119.86
  Q 412.49 116.70 391.35 117.46
  Q 390.83 117.48 390.54 117.93
  Q 388.50 121.11 385.43 123.25
  A 0.67 0.67 0.0 0 0 385.87 124.47
  Q 403.44 122.95 421.29 121.46
  C 424.77 121.17 428.50 121.25 432.12 121.09
  Q 433.24 121.04 433.64 120.49
  Q 434.03 119.96 433.38 119.86
  Z"
/>
<path fill="#03050b" d="
  M 224.75 148.96
  L 225.68 149.22
  Q 226.00 149.31 226.02 148.99
  L 226.62 140.00
  A 0.22 0.22 0.0 0 1 227.04 139.94
  C 228.47 143.97 225.46 149.99 228.90 152.11
  C 230.69 153.22 235.25 152.69 237.69 152.69
  Q 238.20 152.70 238.57 152.34
  Q 239.99 150.98 239.85 148.74
  Q 239.17 137.74 240.02 126.75
  Q 240.16 125.01 237.61 122.84
  Q 237.26 122.56 236.82 122.48
  L 229.89 121.30
  Q 235.36 119.78 240.98 124.06
  A 1.30 1.27 19.1 0 1 241.49 125.08
  L 241.49 151.45
  Q 241.49 153.59 239.35 153.54
  L 225.33 153.18
  Q 224.79 153.17 224.66 152.64
  Q 224.20 150.77 224.75 148.96
  Z"
/>
<path fill="#123669" d="
  M 229.89 121.30
  L 236.82 122.48
  Q 237.26 122.56 237.61 122.84
  Q 240.16 125.01 240.02 126.75
  Q 239.17 137.74 239.85 148.74
  Q 239.99 150.98 238.57 152.34
  Q 238.20 152.70 237.69 152.69
  C 235.25 152.69 230.69 153.22 228.90 152.11
  C 225.46 149.99 228.47 143.97 227.04 139.94
  A 0.22 0.22 0.0 0 0 226.62 140.00
  L 226.02 148.99
  Q 226.00 149.31 225.68 149.22
  L 224.75 148.96
  L 224.62 133.64
  Q 225.97 130.93 225.22 127.66
  A 2.15 2.07 46.7 0 1 225.23 126.73
  Q 225.57 125.35 226.95 125.02
  Q 227.39 124.92 227.35 124.46
  Q 227.26 123.41 227.58 122.44
  L 229.89 121.30
  Z"
/>
<path fill="#03050b" d="
  M 227.58 122.44
  Q 227.26 123.41 227.35 124.46
  Q 227.39 124.92 226.95 125.02
  Q 225.57 125.35 225.23 126.73
  A 2.15 2.07 46.7 0 0 225.22 127.66
  Q 225.97 130.93 224.62 133.64
  C 224.21 129.50 222.90 123.32 227.58 122.44
  Z"
/>
<path fill="#03050b" d="
  M 249.19 151.01
  Q 250.26 151.31 251.06 150.65
  Q 251.48 150.31 251.95 150.57
  Q 253.54 151.44 252.66 152.99
  Q 252.32 153.58 252.94 153.86
  L 255.82 155.15
  A 0.61 0.59 -89.1 0 1 256.13 155.48
  L 260.08 165.60
  Q 260.31 166.17 260.17 166.76
  Q 259.70 168.77 261.05 170.03
  Q 261.42 170.38 261.93 170.33
  Q 264.60 170.07 264.59 168.26
  Q 264.46 150.77 264.11 132.91
  A 1.15 1.15 0.0 0 0 262.94 131.78
  Q 260.98 131.80 260.35 130.07
  Q 260.17 129.58 259.67 129.42
  Q 254.91 128.01 252.57 131.39
  Q 251.39 133.10 251.55 136.36
  Q 251.80 141.43 252.00 146.49
  Q 252.05 147.74 251.20 148.40
  Q 250.65 148.82 250.65 148.13
  Q 250.64 140.87 250.69 133.76
  Q 250.70 132.61 249.14 131.19
  Q 252.06 128.80 257.27 127.29
  A 1.19 1.13 46.5 0 1 258.05 127.33
  Q 259.88 128.05 263.82 129.45
  C 265.92 130.19 266.29 131.25 266.26 133.50
  Q 266.01 150.87 266.08 168.25
  C 266.09 170.76 260.50 172.61 258.56 173.24
  A 0.92 0.92 0.0 0 1 257.39 172.12
  C 259.37 165.14 257.09 160.98 253.23 155.42
  C 251.81 153.38 248.84 154.06 249.19 151.01
  Z"
/>
<path fill="#123669" d="
  M 249.19 151.01
  L 249.14 131.19
  Q 250.70 132.61 250.69 133.76
  Q 250.64 140.87 250.65 148.13
  Q 250.65 148.82 251.20 148.40
  Q 252.05 147.74 252.00 146.49
  Q 251.80 141.43 251.55 136.36
  Q 251.39 133.10 252.57 131.39
  Q 254.91 128.01 259.67 129.42
  Q 260.17 129.58 260.35 130.07
  Q 260.98 131.80 262.94 131.78
  A 1.15 1.15 0.0 0 1 264.11 132.91
  Q 264.46 150.77 264.59 168.26
  Q 264.60 170.07 261.93 170.33
  Q 261.42 170.38 261.05 170.03
  Q 259.70 168.77 260.17 166.76
  Q 260.31 166.17 260.08 165.60
  L 256.13 155.48
  A 0.61 0.59 -89.1 0 0 255.82 155.15
  L 252.94 153.86
  Q 252.32 153.58 252.66 152.99
  Q 253.54 151.44 251.95 150.57
  Q 251.48 150.31 251.06 150.65
  Q 250.26 151.31 249.19 151.01
  Z"
/>
<path fill="#03050b" d="
  M 216.68 138.07
  C 214.23 131.67 207.65 132.53 202.26 134.18
  Q 200.64 134.68 199.67 136.23
  Q 199.47 134.13 202.06 132.99
  Q 209.39 129.78 215.18 133.58
  C 216.94 134.73 216.94 136.15 216.68 138.07
  Z"
/>
<path fill="#123669" d="
  M 216.68 138.07
  L 216.30 152.18
  Q 216.29 152.68 215.81 152.84
  Q 207.99 155.40 201.88 160.92
  Q 199.76 162.84 199.75 159.98
  L 199.67 136.23
  Q 200.64 134.68 202.26 134.18
  C 207.65 132.53 214.23 131.67 216.68 138.07
  Z"
/>
<path fill="#03050b" d="
  M 284.75 163.02
  Q 285.01 161.12 286.80 160.01
  Q 287.21 159.76 287.34 159.30
  C 288.93 153.60 288.25 146.62 287.99 140.71
  C 287.74 135.11 282.37 135.18 278.45 136.95
  C 275.69 138.19 275.46 142.86 275.47 145.41
  Q 275.48 147.61 275.25 151.08
  C 275.09 153.68 275.85 156.26 275.78 158.80
  Q 275.73 160.54 275.82 162.42
  A 0.96 0.95 -76.7 0 0 276.31 163.22
  Q 278.44 164.40 281.63 164.01
  L 274.97 166.57
  A 0.73 0.73 0.0 0 1 273.98 165.90
  Q 273.73 152.74 273.85 139.50
  C 273.87 136.67 277.56 135.98 279.63 135.16
  C 283.31 133.70 286.93 135.41 289.30 138.26
  A 1.35 1.35 0.0 0 1 289.62 139.16
  Q 289.55 149.01 289.09 158.79
  C 288.95 161.65 287.41 162.81 284.75 163.02
  Z"
/>
<path fill="#123669" d="
  M 284.75 163.02
  L 281.63 164.01
  Q 278.44 164.40 276.31 163.22
  A 0.96 0.95 -76.7 0 1 275.82 162.42
  Q 275.73 160.54 275.78 158.80
  C 275.85 156.26 275.09 153.68 275.25 151.08
  Q 275.48 147.61 275.47 145.41
  C 275.46 142.86 275.69 138.19 278.45 136.95
  C 282.37 135.18 287.74 135.11 287.99 140.71
  C 288.25 146.62 288.93 153.60 287.34 159.30
  Q 287.21 159.76 286.80 160.01
  Q 285.01 161.12 284.75 163.02
  Z"
/>
<path fill="#123669" d="
  M 426.19 209.96
  C 423.53 208.00 419.10 205.40 421.58 201.29
  A 1.42 1.42 0.0 0 1 422.25 200.71
  L 424.29 199.81
  A 0.52 0.52 0.0 0 0 424.37 198.90
  C 421.23 196.88 416.84 194.48 416.12 190.56
  Q 416.03 190.08 416.39 189.76
  C 419.41 187.00 422.10 188.91 425.27 189.14
  Q 426.00 189.20 425.63 188.56
  Q 424.93 187.34 424.01 186.99
  Q 416.63 184.25 411.21 178.58
  Q 407.32 174.52 410.87 170.84
  A 0.41 0.37 -74.4 0 1 411.06 170.72
  L 413.97 169.74
  A 0.64 0.63 -28.1 0 0 414.28 168.75
  L 412.35 166.22
  Q 412.03 165.80 411.50 165.70
  Q 405.62 164.69 401.56 160.73
  C 398.50 157.74 399.45 153.91 403.61 152.85
  A 0.60 0.59 76.6 0 0 404.04 152.14
  C 403.64 150.42 402.74 149.55 400.89 149.38
  Q 393.68 148.74 389.19 143.17
  C 384.08 136.85 394.23 134.78 393.57 140.06
  Q 393.37 141.71 391.95 141.76
  A 0.70 0.70 0.0 0 0 391.63 143.06
  Q 400.40 148.07 407.96 141.77
  A 1.04 1.04 0.0 0 0 407.56 139.97
  L 396.70 137.10
  A 0.49 0.49 0.0 0 1 396.94 136.15
  L 413.46 139.90
  A 0.50 0.49 -79.8 0 1 413.84 140.45
  L 413.74 141.33
  A 0.72 0.71 -80.3 0 1 412.89 141.94
  L 410.89 141.50
  A 0.78 0.78 0.0 0 0 409.98 142.04
  Q 408.74 146.16 405.04 148.29
  A 0.98 0.98 0.0 0 0 405.04 149.99
  Q 410.96 153.37 415.98 156.05
  Q 419.59 157.97 421.43 162.62
  A 1.22 1.22 0.0 0 1 421.37 163.63
  Q 419.84 166.49 416.36 166.32
  A 0.88 0.87 62.3 0 0 415.86 167.94
  C 420.15 170.60 430.04 174.62 429.83 181.13
  C 429.70 185.06 424.05 183.92 423.55 180.47
  Q 423.45 179.80 424.07 179.53
  L 425.57 178.86
  A 0.77 0.77 0.0 0 0 425.69 177.51
  Q 419.70 173.56 412.56 173.03
  A 1.39 1.39 0.0 0 0 411.21 175.04
  C 413.05 178.74 415.63 180.64 419.60 182.82
  Q 428.74 187.85 434.00 192.53
  Q 435.11 193.52 435.37 196.20
  Q 435.41 196.65 434.98 196.50
  L 419.62 191.12
  A 0.79 0.79 0.0 0 0 418.86 192.48
  Q 423.82 196.47 428.95 199.57
  Q 434.69 203.03 436.30 204.87
  Q 439.39 208.40 440.52 213.20
  Q 440.63 213.68 440.36 214.09
  L 439.38 215.56
  A 0.58 0.58 0.0 0 0 439.69 216.43
  Q 441.78 217.08 441.74 219.41
  Q 441.70 221.44 439.89 220.52
  L 426.78 213.88
  A 0.49 0.49 0.0 0 0 426.10 214.49
  Q 426.77 216.25 428.16 217.14
  Q 435.94 222.11 441.43 229.56
  C 442.80 231.42 445.33 236.73 444.26 238.97
  Q 443.84 239.84 442.99 239.84
  A 0.92 0.91 -28.5 0 0 442.49 241.52
  Q 455.63 250.03 468.31 258.19
  C 470.07 259.32 470.85 260.51 470.35 262.56
  A 0.32 0.31 -66.1 0 1 469.87 262.75
  Q 450.86 250.24 431.85 237.91
  Q 431.18 237.48 430.56 237.35
  A 0.51 0.50 72.9 0 0 430.11 238.21
  C 435.14 243.06 447.14 254.58 445.42 262.21
  C 444.83 264.87 442.23 264.92 440.17 264.10
  Q 439.30 263.75 438.51 263.65
  A 0.56 0.56 0.0 0 0 437.93 264.46
  Q 442.56 273.49 449.41 280.95
  Q 449.82 281.39 449.40 281.82
  L 448.54 282.70
  A 0.60 0.60 0.0 0 1 447.64 282.67
  L 446.15 280.89
  A 0.62 0.62 0.0 0 0 445.34 280.76
  Q 441.62 283.01 437.22 282.12
  A 0.93 0.92 -4.7 0 0 436.17 283.35
  L 438.03 288.21
  Q 438.25 288.77 437.74 288.46
  Q 433.95 286.19 434.56 281.78
  Q 434.63 281.26 434.24 280.92
  C 430.33 277.51 426.56 269.51 429.66 264.67
  C 432.10 260.86 437.60 267.05 433.41 269.03
  A 1.25 1.24 -44.2 0 1 432.32 269.02
  Q 431.56 268.65 430.85 269.18
  A 0.51 0.51 0.0 0 0 430.68 269.77
  Q 434.12 278.72 443.71 279.43
  A 1.10 1.09 75.8 0 0 444.71 277.75
  Q 441.24 272.32 437.65 267.38
  Q 435.93 265.01 435.78 262.06
  A 1.25 1.25 0.0 0 0 435.39 261.20
  C 432.60 258.52 425.91 250.86 429.60 246.77
  Q 431.03 245.19 433.40 245.46
  A 0.58 0.57 67.7 0 0 433.82 244.44
  Q 429.88 241.22 427.27 236.87
  A 1.53 1.53 0.0 0 1 428.27 234.59
  L 430.06 234.21
  A 0.45 0.45 0.0 0 0 430.31 233.47
  C 426.83 229.38 422.43 224.23 431.39 223.06
  A 0.50 0.50 0.0 0 0 431.64 222.17
  C 428.95 220.02 423.59 216.63 423.07 213.25
  Q 422.79 211.49 425.98 210.90
  Q 427.17 210.67 426.19 209.96
  Z
  M 419.7283 163.2185
  A 9.43 2.89 17.2 0 0 411.5746 157.6692
  A 9.43 2.89 17.2 0 0 401.7117 157.6415
  A 9.43 2.89 17.2 0 0 409.8654 163.1908
  A 9.43 2.89 17.2 0 0 419.7283 163.2185
  Z
  M 438.6508 213.3480
  A 9.27 2.54 32.7 0 0 432.2222 206.2026
  A 9.27 2.54 32.7 0 0 423.0492 203.3320
  A 9.27 2.54 32.7 0 0 429.4778 210.4774
  A 9.27 2.54 32.7 0 0 438.6508 213.3480
  Z
  M 442.5293 238.0027
  A 9.28 2.45 39.9 0 0 436.9816 230.1704
  A 9.28 2.45 39.9 0 0 428.2907 226.0973
  A 9.28 2.45 39.9 0 0 433.8384 233.9296
  A 9.28 2.45 39.9 0 0 442.5293 238.0027
  Z
  M 443.6576 262.5206
  A 9.44 2.86 46.0 0 0 439.1573 253.7433
  A 9.44 2.86 46.0 0 0 430.5424 248.9394
  A 9.44 2.86 46.0 0 0 435.0427 257.7167
  A 9.44 2.86 46.0 0 0 443.6576 262.5206
  Z"
/>
<path fill="#03050b" d="
  M 233.57 177.88
  Q 231.35 176.98 228.88 177.43
  Q 228.23 177.55 228.37 176.90
  L 228.44 176.55
  Q 228.55 176.05 229.06 176.04
  C 233.71 175.97 239.23 177.07 243.45 174.69
  Q 245.95 173.28 248.83 172.86
  A 2.26 2.26 0.0 0 0 250.73 170.21
  Q 249.95 166.03 247.41 162.26
  C 245.89 159.99 240.04 160.91 237.81 161.13
  Q 233.88 161.52 230.92 161.29
  Q 223.79 160.74 216.62 160.95
  C 210.65 161.12 209.25 165.50 204.33 166.67
  A 1.09 1.07 -84.3 0 0 203.58 167.30
  Q 202.59 169.59 202.67 173.00
  Q 203.01 186.43 204.64 196.53
  Q 204.99 198.67 206.38 200.53
  Q 211.73 207.71 216.41 215.50
  Q 209.51 208.06 204.65 201.10
  C 203.89 200.01 203.40 198.63 203.21 197.19
  Q 201.48 183.74 200.33 170.64
  A 2.68 2.68 0.0 0 1 201.41 168.25
  C 206.25 164.69 212.23 159.12 218.25 159.14
  Q 231.75 159.17 245.25 159.22
  C 247.69 159.23 248.05 160.58 249.25 162.15
  Q 253.10 167.18 250.58 173.38
  C 249.21 176.74 236.80 177.67 233.57 177.88
  Z"
/>
<path fill="#123669" d="
  M 233.57 177.88
  L 225.79 180.48
  Q 225.13 180.71 225.66 181.16
  Q 227.24 182.51 229.01 182.53
  Q 238.84 182.63 250.98 181.83
  Q 254.76 181.58 258.37 180.28
  Q 273.19 174.94 287.87 168.98
  A 0.70 0.69 79.6 0 1 288.82 169.64
  Q 288.56 184.16 287.24 198.75
  C 286.95 202.03 286.73 203.78 284.55 206.43
  Q 279.37 212.73 274.12 218.95
  Q 272.56 220.80 273.20 224.23
  Q 274.41 230.72 275.03 236.88
  Q 274.19 245.74 276.35 254.00
  C 276.99 256.46 276.73 258.80 277.21 260.97
  Q 278.75 267.90 279.21 275.01
  Q 279.24 275.51 279.56 275.89
  C 281.59 278.27 279.67 281.45 281.09 284.33
  A 1.73 1.66 36.1 0 1 281.26 285.29
  Q 280.95 288.03 282.75 289.77
  L 289.09 332.20
  A 1.81 1.81 0.0 0 1 287.33 334.27
  L 250.29 334.73
  L 218.01 334.56
  L 208.23 334.28
  A 1.91 1.91 0.0 0 1 206.41 332.03
  Q 211.82 301.91 217.48 272.16
  Q 218.78 265.35 219.00 258.74
  Q 219.80 235.40 219.19 221.58
  Q 219.07 218.89 216.41 215.50
  Q 211.73 207.71 206.38 200.53
  Q 204.99 198.67 204.64 196.53
  Q 203.01 186.43 202.67 173.00
  Q 202.59 169.59 203.58 167.30
  A 1.09 1.07 -84.3 0 1 204.33 166.67
  C 209.25 165.50 210.65 161.12 216.62 160.95
  Q 223.79 160.74 230.92 161.29
  Q 233.88 161.52 237.81 161.13
  C 240.04 160.91 245.89 159.99 247.41 162.26
  Q 249.95 166.03 250.73 170.21
  A 2.26 2.26 0.0 0 1 248.83 172.86
  Q 245.95 173.28 243.45 174.69
  C 239.23 177.07 233.71 175.97 229.06 176.04
  Q 228.55 176.05 228.44 176.55
  L 228.37 176.90
  Q 228.23 177.55 228.88 177.43
  Q 231.35 176.98 233.57 177.88
  Z"
/>
<path fill="#123669" d="
  M 162.47 165.92
  Q 159.77 167.83 158.25 167.72
  Q 152.94 167.33 147.66 167.74
  Q 144.34 168.00 140.81 167.85
  Q 137.40 167.71 133.94 167.87
  Q 133.37 167.90 133.35 168.47
  Q 133.29 170.12 134.54 171.57
  Q 132.27 172.65 132.10 175.13
  L 124.67 179.18
  Q 123.58 177.15 120.83 176.94
  Q 121.15 176.50 119.47 175.74
  Q 116.34 169.51 118.95 165.28
  Q 123.01 158.71 129.36 162.25
  C 131.14 163.24 132.49 165.02 133.92 166.59
  A 1.18 1.17 69.2 0 0 134.76 166.97
  Q 148.43 167.28 162.47 165.92
  Z
  M 121.60 163.68
  C 118.58 165.96 118.67 169.71 119.90 173.10
  A 0.49 0.49 0.0 0 0 120.85 172.95
  L 121.05 166.51
  Q 121.07 165.96 121.59 165.81
  L 126.91 164.21
  A 0.85 0.85 0.0 0 1 127.71 164.39
  L 131.93 168.07
  A 0.68 0.68 0.0 0 0 132.98 167.23
  C 131.48 164.46 129.80 162.73 126.69 162.92
  C 124.74 163.03 123.20 162.47 121.60 163.68
  Z"
/>
<path fill="#123669" d="
  M 370.15 176.01
  Q 366.67 176.09 367.68 177.13
  Q 365.34 177.64 364.97 178.78
  Q 363.75 178.15 363.07 179.01
  Q 361.83 177.00 359.49 177.02
  Q 358.26 176.30 357.53 176.69
  Q 357.67 173.06 355.07 171.44
  Q 355.54 170.82 356.37 170.42
  Q 356.85 170.18 356.84 169.65
  Q 356.81 168.33 355.20 167.37
  C 357.00 165.93 358.60 163.97 360.26 162.91
  C 364.74 160.04 369.63 162.17 371.14 167.04
  C 372.20 170.46 370.27 173.15 370.15 176.01
  Z"
/>
<path fill="#03050b" d="
  M 355.20 167.37
  Q 356.81 168.33 356.84 169.65
  Q 356.85 170.18 356.37 170.42
  Q 355.54 170.82 355.07 171.44
  Q 353.40 171.21 351.75 171.21
  Q 328.87 171.14 306.00 171.29
  Q 305.01 171.30 303.07 170.58
  Q 302.56 170.39 302.50 169.85
  L 301.62 162.60
  Q 301.53 161.84 302.28 162.00
  Q 328.48 167.69 355.20 167.37
  Z"
/>
<path fill="#062254" d="
  M 134.54 171.57
  Q 133.29 170.12 133.35 168.47
  Q 133.37 167.90 133.94 167.87
  Q 137.40 167.71 140.81 167.85
  Q 144.34 168.00 147.66 167.74
  Q 152.94 167.33 158.25 167.72
  Q 159.77 167.83 162.47 165.92
  L 185.82 162.61
  A 1.11 1.11 0.0 0 1 187.08 163.65
  L 187.35 169.56
  Q 187.43 171.21 185.77 171.23
  L 134.54 171.57
  Z"
/>
<path fill="#062254" d="
  M 119.90 173.10
  C 118.67 169.71 118.58 165.96 121.60 163.68
  C 123.20 162.47 124.74 163.03 126.69 162.92
  C 129.80 162.73 131.48 164.46 132.98 167.23
  A 0.68 0.68 0.0 0 1 131.93 168.07
  L 127.71 164.39
  A 0.85 0.85 0.0 0 0 126.91 164.21
  L 121.59 165.81
  Q 121.07 165.96 121.05 166.51
  L 120.85 172.95
  A 0.49 0.49 0.0 0 1 119.90 173.10
  Z"
/>
<path fill="#8c8c8c" d="
  M 132.10 175.13
  Q 149.91 227.90 168.42 280.18
  C 169.24 282.48 169.77 285.01 170.54 287.57
  Q 167.83 286.52 167.87 286.01
  C 168.01 283.51 166.41 280.76 165.84 279.00
  Q 152.32 237.23 137.22 196.01
  Q 135.68 191.82 132.12 180.88
  Q 131.60 179.27 130.16 177.81
  Q 129.81 177.45 129.31 177.54
  C 124.59 178.34 127.09 182.40 127.04 185.13
  Q 126.35 232.05 126.65 278.97
  C 126.66 280.48 126.05 282.36 125.96 284.02
  Q 125.88 283.74 125.48 284.03
  Q 124.66 278.33 124.67 276.25
  Q 125.00 227.75 124.67 179.18
  L 132.10 175.13
  Z"
/>
<path fill="#8c8c8c" d="
  M 370.15 176.01
  L 408.09 284.83
  Q 406.05 286.97 406.22 285.03
  Q 393.38 248.74 380.98 212.38
  C 378.34 204.64 375.32 196.80 372.47 189.00
  C 371.00 184.97 371.28 180.90 367.68 177.13
  Q 366.67 176.09 370.15 176.01
  Z"
/>
<path fill="#8c8c8c" d="
  M 119.47 175.74
  Q 121.15 176.50 120.83 176.94
  C 119.76 179.69 119.15 182.84 118.25 185.33
  Q 99.18 238.21 87.22 274.98
  Q 85.74 279.54 83.70 282.33
  Q 83.31 282.86 83.32 282.21
  Q 83.33 280.17 83.68 278.76
  C 86.01 269.52 90.16 260.97 92.93 251.87
  C 95.36 243.83 98.79 236.15 101.17 228.24
  C 103.70 219.87 107.10 211.71 109.55 203.47
  Q 113.68 189.58 119.47 175.74
  Z"
/>
<path fill="#8c8c8c" d="
  M 359.49 177.02
  C 357.12 179.71 356.92 183.33 356.05 185.64
  Q 347.27 208.87 340.76 228.26
  Q 330.10 260.07 322.46 281.08
  Q 322.01 282.32 321.43 283.50
  Q 321.16 283.81 320.67 283.43
  Q 322.13 278.28 327.80 261.80
  Q 337.94 232.33 348.09 202.86
  Q 354.89 183.14 357.53 176.69
  Q 358.26 176.30 359.49 177.02
  Z"
/>
<path fill="#8c8c8c" d="
  M 364.97 178.78
  Q 365.02 229.33 365.00 279.85
  C 365.00 281.55 364.38 284.39 365.08 286.45
  Q 365.53 286.77 365.35 287.05
  A 1.21 1.21 0.0 0 1 363.49 287.26
  Q 363.02 286.81 363.53 285.85
  Q 363.41 284.01 363.16 281.95
  Q 362.90 279.81 362.88 278.04
  Q 362.57 228.54 363.07 179.01
  Q 363.75 178.15 364.97 178.78
  Z"
/>
<ellipse fill="#123669" cx="0.00" cy="0.00" transform="translate(443.56,197.17) rotate(18.6)" rx="1.96" ry="1.74"/>
<path fill="#123669" d="
  M 56.21 240.02
  A 0.81 0.80 63.6 0 0 56.65 238.69
  Q 51.07 232.45 45.73 226.03
  C 38.50 217.35 31.98 208.63 29.83 199.28
  A 0.79 0.79 0.0 0 1 31.18 198.57
  Q 50.81 220.00 73.18 238.54
  A 0.50 0.49 50.8 0 0 73.71 238.60
  Q 74.24 238.33 73.89 237.54
  Q 70.94 230.83 66.59 224.92
  Q 66.16 224.34 66.08 223.96
  A 0.45 0.45 0.0 0 1 66.83 223.55
  C 70.93 227.64 75.20 233.09 76.03 238.75
  C 76.27 240.36 76.79 240.97 78.15 241.62
  Q 78.57 241.82 78.55 242.28
  L 78.45 245.71
  A 0.42 0.41 -70.7 0 1 77.79 246.03
  L 76.09 244.75
  A 0.75 0.75 0.0 0 0 74.89 245.27
  Q 74.36 249.97 70.93 253.19
  A 1.21 1.21 0.0 0 0 70.77 254.77
  Q 74.99 260.77 77.42 267.76
  C 79.09 272.58 79.88 284.33 71.78 283.19
  Q 68.12 282.68 68.28 279.09
  C 68.36 277.26 69.94 276.38 71.54 277.27
  A 0.72 0.71 -73.5 0 1 71.90 277.94
  L 71.69 281.01
  A 0.68 0.67 -4.5 0 0 72.52 281.71
  C 82.53 279.49 72.60 260.18 69.46 255.87
  A 0.90 0.90 0.0 0 0 68.09 255.76
  C 63.10 260.82 53.06 263.56 47.36 257.88
  Q 45.30 255.83 45.03 252.60
  C 44.50 246.12 50.50 241.18 56.21 240.02
  Z
  M 59.43 239.10
  L 67.34 239.46
  A 0.49 0.49 0.0 0 0 67.71 238.63
  L 34.49 205.69
  Q 34.04 205.24 34.23 205.85
  Q 35.06 208.37 36.58 210.63
  Q 46.59 225.47 58.65 238.73
  Q 58.97 239.07 59.43 239.10
  Z
  M 68.87 251.77
  A 0.90 0.90 0.0 0 0 70.38 251.63
  L 74.05 244.35
  A 0.90 0.90 0.0 0 0 73.45 243.07
  L 62.08 240.39
  A 0.90 0.90 0.0 0 0 61.16 241.82
  L 68.87 251.77
  Z
  M 47.41 248.92
  Q 45.44 252.86 47.90 255.96
  C 52.79 262.14 62.22 258.85 67.52 254.59
  Q 68.45 253.85 67.70 252.92
  C 65.09 249.69 62.03 246.30 59.51 242.65
  Q 58.50 241.18 56.56 241.71
  Q 50.13 243.48 47.41 248.92
  Z"
/>
<path fill="#03050b" d="
  M 275.03 236.88
  L 282.75 289.77
  Q 280.95 288.03 281.26 285.29
  A 1.73 1.66 36.1 0 0 281.09 284.33
  C 279.67 281.45 281.59 278.27 279.56 275.89
  Q 279.24 275.51 279.21 275.01
  Q 278.75 267.90 277.21 260.97
  C 276.73 258.80 276.99 256.46 276.35 254.00
  Q 274.19 245.74 275.03 236.88
  Z"
/>
<path fill="#062254" d="
  M 320.67 283.43
  Q 321.16 283.81 321.43 283.50
  C 320.47 286.31 322.43 287.11 325.00 287.08
  Q 341.87 286.89 358.75 287.07
  Q 360.96 287.09 363.53 285.85
  Q 363.02 286.81 363.49 287.26
  A 1.21 1.21 0.0 0 0 365.35 287.05
  Q 365.53 286.77 365.08 286.45
  Q 366.04 286.96 366.75 286.97
  Q 384.76 287.14 402.75 286.85
  Q 405.38 286.81 406.22 285.03
  Q 406.05 286.97 408.09 284.83
  C 411.96 291.12 395.88 292.24 392.20 292.44
  L 392.35 292.01
  Q 392.54 291.49 392.02 291.31
  Q 390.67 290.83 388.75 290.68
  Q 376.76 289.75 366.00 290.94
  C 363.32 291.24 360.50 289.93 357.66 290.03
  Q 348.03 290.38 338.69 289.84
  Q 335.12 289.64 337.93 291.84
  Q 340.36 293.75 344.34 294.80
  Q 347.05 295.52 351.26 295.63
  Q 363.85 295.98 376.46 296.10
  C 379.26 296.12 381.55 294.86 384.42 294.54
  C 386.76 294.28 388.64 293.06 391.03 292.99
  C 383.86 298.18 378.44 297.76 367.94 297.99
  Q 354.40 298.28 347.23 297.44
  Q 342.05 296.84 335.49 292.32
  A 1.56 1.54 60.4 0 0 334.57 292.06
  Q 326.88 292.41 321.13 289.14
  Q 318.68 287.75 320.67 283.43
  Z"
/>
<path fill="#123669" d="
  M 125.48 284.03
  Q 125.88 283.74 125.96 284.02
  C 125.18 286.35 127.32 287.11 129.25 287.14
  Q 147.10 287.33 164.96 287.10
  C 166.08 287.09 166.95 286.57 167.87 286.01
  Q 167.83 286.52 170.54 287.57
  Q 167.36 290.76 161.98 291.32
  C 158.52 291.68 155.44 291.61 152.26 293.42
  C 148.08 295.80 144.29 297.13 139.22 297.42
  Q 122.93 298.34 109.50 297.19
  C 106.24 296.92 103.81 295.75 100.40 293.69
  C 96.01 291.05 91.97 292.14 88.01 291.03
  Q 84.70 290.09 81.77 288.26
  A 1.10 1.09 -77.4 0 1 81.26 287.45
  Q 81.12 286.09 81.96 285.01
  Q 82.43 284.40 82.74 285.10
  C 83.30 286.35 83.88 286.80 85.31 286.84
  Q 103.48 287.24 121.64 287.25
  C 123.79 287.25 126.02 286.66 125.48 284.03
  Z"
/>
<path fill="#123669" d="
  M 392.20 292.44
  Q 391.97 292.92 391.03 292.99
  C 388.64 293.06 386.76 294.28 384.42 294.54
  C 381.55 294.86 379.26 296.12 376.46 296.10
  Q 363.85 295.98 351.26 295.63
  Q 347.05 295.52 344.34 294.80
  Q 340.36 293.75 337.93 291.84
  Q 335.12 289.64 338.69 289.84
  Q 348.03 290.38 357.66 290.03
  C 360.50 289.93 363.32 291.24 366.00 290.94
  Q 376.76 289.75 388.75 290.68
  Q 390.67 290.83 392.02 291.31
  Q 392.54 291.49 392.35 292.01
  L 392.20 292.44
  Z"
/>
<path fill="#8c8c8c" d="
  M 250.29 334.73
  L 245.48 336.07
  L 221.58 335.65
  L 218.01 334.56
  L 250.29 334.73
  Z"
/>
<path fill="#123669" d="
  M 221.58 335.65
  L 245.48 336.07
  L 305.06 336.89
  A 0.64 0.64 0.0 0 1 305.69 337.52
  L 305.76 340.48
  Q 305.78 340.99 305.27 340.98
  L 193.27 340.24
  A 0.71 0.71 0.0 0 1 192.56 339.52
  L 192.60 336.85
  A 0.76 0.75 -90.0 0 1 193.34 336.10
  L 221.58 335.65
  Z"
/>
<path fill="#062254" d="
  M 326.93 350.34
  A 3.04 3.04 0.0 0 1 323.89 353.38
  L 166.43 353.38
  A 3.04 3.04 0.0 0 1 163.39 350.34
  L 163.39 346.48
  A 3.04 3.04 0.0 0 1 166.43 343.44
  L 323.89 343.44
  A 3.04 3.04 0.0 0 1 326.93 346.48
  L 326.93 350.34
  Z
  M 323.69 347.82
  A 1.23 1.23 0.0 0 0 322.46 346.59
  L 166.84 346.59
  A 1.23 1.23 0.0 0 0 165.61 347.82
  L 165.61 349.52
  A 1.23 1.23 0.0 0 0 166.84 350.75
  L 322.46 350.75
  A 1.23 1.23 0.0 0 0 323.69 349.52
  L 323.69 347.82
  Z"
/>
<rect fill="#123669" x="165.61" y="346.59" width="158.08" height="4.16" rx="1.23"/>
<rect fill="#123669" x="144.32" y="357.54" width="200.56" height="19.72" rx="1.95"/>
<path fill="#123669" d="
  M 180.90 410.08
  L 173.88 414.38
  Q 171.12 416.07 171.17 412.83
  L 171.21 410.32
  Q 171.22 409.83 171.67 409.61
  Q 179.33 405.99 184.28 399.21
  C 185.43 397.64 186.45 397.30 188.25 397.88
  Q 188.77 398.05 188.77 398.60
  L 188.63 445.87
  Q 188.63 446.61 187.88 446.61
  L 183.92 446.58
  Q 183.28 446.57 183.28 445.93
  L 183.20 411.37
  Q 183.19 408.68 180.90 410.08
  Z"
/>
<path fill="#123669" d="
  M 230.31 426.00
  A 0.74 0.73 66.3 0 0 229.09 425.52
  Q 224.45 429.61 218.70 429.76
  C 201.08 430.25 199.54 401.97 215.67 398.27
  C 222.15 396.78 228.69 398.94 232.46 404.49
  C 238.13 412.83 237.51 432.94 231.46 441.04
  C 224.47 450.42 208.02 449.69 205.49 436.51
  A 0.64 0.64 0.0 0 1 206.04 435.76
  L 209.98 435.35
  Q 210.65 435.28 210.79 435.93
  Q 212.23 442.56 218.48 443.06
  C 227.20 443.75 231.03 432.97 230.31 426.00
  Z
  M 219.8698 425.3166
  A 11.47 10.08 91.4 0 0 230.2270 414.0963
  A 11.47 10.08 91.4 0 0 220.4302 402.3834
  A 11.47 10.08 91.4 0 0 210.0730 413.6037
  A 11.47 10.08 91.4 0 0 219.8698 425.3166
  Z"
/>
<path fill="#123669" d="
  M 265.76 420.65
  C 267.25 421.77 269.05 422.38 270.28 423.63
  Q 276.47 429.99 273.01 438.25
  C 268.52 448.95 252.00 450.37 245.07 441.45
  C 240.20 435.18 241.38 423.61 250.26 421.14
  A 0.73 0.73 0.0 0 0 250.46 419.83
  Q 241.78 414.20 245.07 405.86
  C 249.34 395.05 265.88 395.21 270.81 404.96
  Q 273.83 410.95 269.95 416.32
  C 268.89 417.77 267.33 418.67 265.77 419.77
  Q 265.17 420.20 265.76 420.65
  Z
  M 266.4161 411.3496
  A 8.33 7.94 7.1 0 0 259.1314 402.4409
  A 8.33 7.94 7.1 0 0 249.8839 409.2904
  A 8.33 7.94 7.1 0 0 257.1686 418.1991
  A 8.33 7.94 7.1 0 0 266.4161 411.3496
  Z
  M 268.54 432.80
  A 10.32 10.32 0.0 0 0 258.22 422.48
  A 10.32 10.32 0.0 0 0 247.90 432.80
  A 10.32 10.32 0.0 0 0 258.22 443.12
  A 10.32 10.32 0.0 0 0 268.54 432.80
  Z"
/>
<path fill="#123669" d="
  M 285.77 420.51
  A 0.40 0.39 -27.2 0 0 286.46 420.73
  C 291.92 414.52 300.70 413.36 306.88 418.97
  C 316.14 427.39 311.40 446.26 298.03 447.02
  C 284.96 447.77 280.78 438.32 280.18 426.96
  C 279.75 418.79 280.27 406.55 287.55 401.00
  C 295.64 394.83 309.28 397.48 310.69 409.02
  Q 310.78 409.68 310.11 409.72
  L 305.89 409.91
  Q 305.31 409.94 305.19 409.37
  Q 304.16 404.30 299.94 402.84
  C 289.69 399.32 285.02 412.91 285.77 420.51
  Z
  M 296.9726 443.0181
  A 11.52 10.06 87.4 0 0 306.4996 431.0536
  A 11.52 10.06 87.4 0 0 295.9274 420.0019
  A 11.52 10.06 87.4 0 0 286.4004 431.9664
  A 11.52 10.06 87.4 0 0 296.9726 443.0181
  Z"
/>
</svg>
